<svg xmlns="http://www.w3.org/2000/svg" width="384" height="384" viewBox="0 0 101.60012 101.6">
  <circle cx="50.799995" cy="50.800018" r="44.449997" fill="none" stroke="#fff" stroke-dashoffset="84.6667" stroke-width="4.445" paint-order="stroke markers fill"/>
  <path fill="#f5f5f5" d="M0 0h101.6v101.6H0z" paint-order="stroke markers fill"/>
  <circle cx="50.799995" cy="50.800018" r="42.333332" fill="#cbc1e8" stroke="#cbc1e8" stroke-dashoffset="84.6667" stroke-width=".264583" paint-order="stroke markers fill"/>
  <g fill="#7464a0" stroke="#7464a0" stroke-width=".264583">
    <path d="m33.866665 33.866675-16.93334 20.10833v13.75834l16.93334-20.10834M84.666668 33.866685l-16.933336 20.10832v13.75834l16.933336-20.10834M33.866668 84.666678V67.733335h8.466664v16.933343zM59.266662 33.866675V16.933342h8.46667v16.933333z"/>
  </g>
  <path fill="#e8e6ef" d="M19.607073 6.8e-7 16.933334 3.1750006 6.8e-7 23.283334v13.758333L16.933334 16.933334 31.192928 6.8e-7Zm14.259594 0V33.866667h8.466666V6.8e-7Zm11.140405 0L59.266667 16.933334h8.466666L81.992927 6.8e-7H70.407072L67.733333 3.1750006V6.8e-7h-8.466666V3.1750006L56.592928 6.8e-7ZM101.6 13.758334 84.666666 33.866667V47.625L101.6 27.516667ZM16.933334 53.975 6.8e-7 74.083333v13.758333L16.933334 67.733333ZM101.6 64.558333 84.666666 84.666666 70.407072 101.6h11.585855l2.673739-3.175001L101.6 78.316666Zm-42.333333 3.175V101.6h8.466666V67.733333Zm-25.4 16.933333L19.607073 101.6h11.585855l2.673739-3.175001V101.6h8.466666v-3.175001L45.007072 101.6h11.585856L42.333333 84.666666Z"/>
  <path fill="#9288ad" stroke="#9288ad" stroke-width=".264583" d="m52.157539 8.4909726 7.109127 8.4423784h8.466666l2.951758-3.505729a42.333333 42.333333 0 0 0-18.527551-4.9366494Zm-9.824206.856795a42.333333 42.333333 0 0 0-8.466667 2.6856244v21.833292h8.466667V16.933351ZM87.769838 30.181639l-3.10317 3.685045v13.758333l6.90604-8.200532a42.333333 42.333333 0 0 0-3.80287-9.242846zM16.933333 53.975017l-6.887435 8.178829a42.333333 42.333333 0 0 0 3.795633 9.251114l3.091802-3.671609zm42.333333 13.758334V92.252268a42.333333 42.333333 0 0 0 8.466666-2.68563V67.733351zm-25.4 16.933337-2.932636 3.48247a42.333333 42.333333 0 0 0 18.485691 4.93252l-7.086388-8.41499z"/>
  <path fill="#332e3f" stroke="#332e3f" stroke-width=".264583" d="m33.866665 67.733345-.000001-33.86667h8.466666l16.933335 20.10833-.000001-20.10833h8.466666l.000002 33.86667h-8.466667l-16.933333-20.10834-.000001 20.10834z"/>
</svg>
