<?xml version="1.0" encoding="UTF-8"?>
<svg width="146.85" height="146.85" version="1.1" viewBox="0 0 38.855 38.855" xmlns="http://www.w3.org/2000/svg">
<circle cx="19.427" cy="19.427" r="19.367" fill="#cbc1e8" stroke="#cbc1e8" stroke-dashoffset="84.667" stroke-width=".12104" paint-order="stroke markers fill"/>
<g transform="matrix(.45749 0 0 .45749 -3.813 -3.813)" fill="#7464a0" stroke="#7464a0" stroke-width=".26458">
<path d="m33.867 33.867-16.933 20.108v13.758l16.933-20.108m50.8-13.758-16.933 20.108v13.758l16.933-20.108m-50.8 37.042v-16.933h8.4667v16.933zm25.4-50.8v-16.933h8.4667v16.933z"/>
</g>
<path d="m20.049 0.071507 3.2523 3.8623h3.8734l1.3504-1.6038a19.367 19.367 0 0 0-8.4764-2.2584zm-4.4945 0.39198a19.367 19.367 0 0 0-3.8734 1.2286v9.9884h3.8734v-7.7467zm20.787 9.5313-1.4197 1.6858v6.2941l3.1594-3.7516a19.367 19.367 0 0 0-1.7398-4.2285zm-32.407 10.885-3.1509 3.7417a19.367 19.367 0 0 0 1.7364 4.2323l1.4145-1.6797zm19.367 6.2941v11.217a19.367 19.367 0 0 0 3.8734-1.2286v-9.9884zm-11.62 7.7467-1.3416 1.5932a19.367 19.367 0 0 0 8.4571 2.2566l-3.242-3.8498z" fill="#9288ad" stroke="#9288ad" stroke-width=".12104"/>
<path d="m11.681 27.174v-15.494h3.8734l7.7467 9.1992-1e-6 -9.1992h3.8734v15.494h-3.8734l-7.7467-9.1992v9.1992z" fill="#332e3f" stroke="#332e3f" stroke-width=".12104"/>
</svg>
