<?xml version="1.0" encoding="UTF-8"?>
<svg width="321" height="321" version="1.1" viewBox="0 0 84.931 84.931" xmlns="http://www.w3.org/2000/svg">
<circle cx="42.465" cy="42.465" r="42.333" fill="#cbc1e8" stroke="#cbc1e8" stroke-dashoffset="84.667" stroke-width=".26458" paint-order="stroke markers fill"/>
<g transform="translate(-8.3347 -8.3347)" fill="#7464a0" stroke="#7464a0" stroke-width=".26458">
<path d="m33.867 33.867-16.933 20.108v13.758l16.933-20.108m50.8-13.758-16.933 20.108v13.758l16.933-20.108m-50.8 37.042v-16.933h8.4667v16.933zm25.4-50.8v-16.933h8.4667v16.933z"/>
</g>
<path d="m43.823 0.15629 7.1091 8.4424h8.4667l2.9518-3.5057a42.333 42.333 0 0 0-18.528-4.9366zm-9.8242 0.8568a42.333 42.333 0 0 0-8.4667 2.6856v21.833h8.4667v-16.933zm45.437 20.834-3.1032 3.685v13.758l6.906-8.2005a42.333 42.333 0 0 0-3.8029-9.2428zm-70.837 23.793-6.8874 8.1788a42.333 42.333 0 0 0 3.7956 9.2511l3.0918-3.6716zm42.333 13.758v24.519a42.333 42.333 0 0 0 8.4667-2.6856v-21.833zm-25.4 16.933-2.9326 3.4825a42.333 42.333 0 0 0 18.486 4.9325l-7.0864-8.415z" fill="#9288ad" stroke="#9288ad" stroke-width=".26458"/>
<path d="m25.532 59.398-1e-6 -33.867h8.4667l16.933 20.108-1e-6 -20.108h8.4667l2e-6 33.867h-8.4667l-16.933-20.108-1e-6 20.108z" fill="#332e3f" stroke="#332e3f" stroke-width=".26458"/>
</svg>
